<?xml version="1.0" encoding="UTF-8" standalone="no"?>
<!DOCTYPE svg PUBLIC "-//W3C//DTD SVG 1.1//EN" "http://www.w3.org/Graphics/SVG/1.1/DTD/svg11.dtd">
<svg width="100%" height="100%" viewBox="0 0 40 40" version="1.1" xmlns="http://www.w3.org/2000/svg" xmlns:xlink="http://www.w3.org/1999/xlink" xml:space="preserve" xmlns:serif="http://www.serif.com/" style="fill-rule:evenodd;clip-rule:evenodd;stroke-linecap:round;stroke-linejoin:round;stroke-miterlimit:1.5;">
    <g transform="matrix(1,0,0,1,-115.032,-282.356)">
        <g>
            <g transform="matrix(1,0,0,1,-2.23467,-4.23845)">
                <circle cx="137.266" cy="306.594" r="14.223" style="fill:none;stroke:white;stroke-width:1.48px;"/>
            </g>
            <path d="M127.246,309.871L131.199,298.24L144.064,293.188L139.027,305.898L127.246,309.871ZM135.227,299.726C136.308,299.726 137.186,300.604 137.186,301.685C137.186,302.766 136.308,303.644 135.227,303.644C134.146,303.644 133.268,302.766 133.268,301.685C133.268,300.604 134.146,299.726 135.227,299.726Z" style="fill:white;"/>
        </g>
        <g transform="matrix(1.04073,0,0,1.04073,-3.84166,100.248)">
            <rect x="114.221" y="174.981" width="38.435" height="38.435" style="fill:none;"/>
        </g>
    </g>
</svg>
